<svg width="28" height="33" xmlns="http://www.w3.org/2000/svg"><defs><linearGradient x1="50%" y1="100%" x2="50%" y2="0%" id="a"><stop stop-color="#FFB874" offset="0%"/><stop stop-color="#FF874B" offset="100%"/></linearGradient></defs><path d="M247.43 3h-2.855v24.746c-4.44-2.059-9.64.695-10.502 4.785-.28 1.332.302 2.77.839 3.43 3.038 3.695 9.663 1.972 12.706-2.004 1.348-1.766 1.237-3.305 1.237-7.082V11.73c1.87 1.418 3.981 2.739 4.74 5.274.467 1.574-.157 4.191-.651 5.527-.15.402-.564.738-.372 1.14 1.31.993 1.958-1.117 2.333-2 .407-.956.797-2.136.935-2.952 1.468-8.735-7.64-9.067-8.41-15.719z" transform="rotate(20 138.507 -633.197)" fill="url(#a)" fill-rule="evenodd"/></svg>